<mxfile host="Electron" agent="Mozilla/5.0 (Macintosh; Intel Mac OS X 10_15_7) AppleWebKit/537.36 (KHTML, like Gecko) draw.io/26.1.1 Chrome/132.0.6834.210 Electron/34.3.3 Safari/537.36" version="26.1.1">
  <diagram id="C5RBs43oDa-KdzZeNtuy" name="Page-1">
    <mxGraphModel dx="2074" dy="1267" grid="1" gridSize="10" guides="1" tooltips="1" connect="1" arrows="1" fold="1" page="1" pageScale="1" pageWidth="827" pageHeight="1169" math="0" shadow="0">
      <root>
        <mxCell id="WIyWlLk6GJQsqaUBKTNV-0" />
        <mxCell id="WIyWlLk6GJQsqaUBKTNV-1" parent="WIyWlLk6GJQsqaUBKTNV-0" />
        <mxCell id="HJgES-3uZnZ1iYDHPRsR-43" style="edgeStyle=orthogonalEdgeStyle;rounded=0;orthogonalLoop=1;jettySize=auto;html=1;exitX=0.5;exitY=1;exitDx=0;exitDy=0;exitPerimeter=0;entryX=0.5;entryY=0;entryDx=0;entryDy=0;fontFamily=STIX;entryPerimeter=0;" parent="WIyWlLk6GJQsqaUBKTNV-1" source="HJgES-3uZnZ1iYDHPRsR-1" target="1lUNTdqZq1-scsrUU96o-1" edge="1">
          <mxGeometry relative="1" as="geometry">
            <mxPoint x="400" y="100" as="targetPoint" />
          </mxGeometry>
        </mxCell>
        <mxCell id="HJgES-3uZnZ1iYDHPRsR-1" value="Deal with Response" style="strokeWidth=2;html=1;shape=mxgraph.flowchart.start_2;whiteSpace=wrap;fontFamily=STIX;" parent="WIyWlLk6GJQsqaUBKTNV-1" vertex="1">
          <mxGeometry x="320" y="20" width="160" height="40" as="geometry" />
        </mxCell>
        <mxCell id="DIX37AAkpZwaq2ukfVkO-11" style="edgeStyle=orthogonalEdgeStyle;rounded=0;orthogonalLoop=1;jettySize=auto;html=1;exitX=0;exitY=0.5;exitDx=0;exitDy=0;exitPerimeter=0;entryX=0.5;entryY=0;entryDx=0;entryDy=0;fontFamily=STIX;" parent="WIyWlLk6GJQsqaUBKTNV-1" source="1lUNTdqZq1-scsrUU96o-1" target="DIX37AAkpZwaq2ukfVkO-6" edge="1">
          <mxGeometry relative="1" as="geometry" />
        </mxCell>
        <mxCell id="DIX37AAkpZwaq2ukfVkO-12" value="Ping" style="edgeLabel;html=1;align=center;verticalAlign=middle;resizable=0;points=[];fontFamily=STIX;" parent="DIX37AAkpZwaq2ukfVkO-11" vertex="1" connectable="0">
          <mxGeometry x="0.575" relative="1" as="geometry">
            <mxPoint y="17" as="offset" />
          </mxGeometry>
        </mxCell>
        <mxCell id="1lUNTdqZq1-scsrUU96o-1" value="Type of Response" style="strokeWidth=2;html=1;shape=mxgraph.flowchart.decision;whiteSpace=wrap;fontFamily=STIX;" parent="WIyWlLk6GJQsqaUBKTNV-1" vertex="1">
          <mxGeometry x="320" y="100" width="160" height="80" as="geometry" />
        </mxCell>
        <mxCell id="DIX37AAkpZwaq2ukfVkO-1" value="Finish" style="strokeWidth=2;html=1;shape=mxgraph.flowchart.terminator;whiteSpace=wrap;fontFamily=STIX;" parent="WIyWlLk6GJQsqaUBKTNV-1" vertex="1">
          <mxGeometry x="320" y="690" width="160" height="60" as="geometry" />
        </mxCell>
        <mxCell id="DIX37AAkpZwaq2ukfVkO-3" style="edgeStyle=orthogonalEdgeStyle;rounded=0;orthogonalLoop=1;jettySize=auto;html=1;exitX=0;exitY=0.5;exitDx=0;exitDy=0;exitPerimeter=0;entryX=0;entryY=0.5;entryDx=0;entryDy=0;entryPerimeter=0;fontFamily=STIX;" parent="WIyWlLk6GJQsqaUBKTNV-1" source="1lUNTdqZq1-scsrUU96o-1" target="DIX37AAkpZwaq2ukfVkO-1" edge="1">
          <mxGeometry relative="1" as="geometry">
            <Array as="points">
              <mxPoint x="40" y="140" />
              <mxPoint x="40" y="720" />
            </Array>
          </mxGeometry>
        </mxCell>
        <mxCell id="DIX37AAkpZwaq2ukfVkO-4" value="Start" style="edgeLabel;html=1;align=center;verticalAlign=middle;resizable=0;points=[];fontFamily=STIX;" parent="DIX37AAkpZwaq2ukfVkO-3" vertex="1" connectable="0">
          <mxGeometry x="-0.7459" y="1" relative="1" as="geometry">
            <mxPoint x="-135" y="29" as="offset" />
          </mxGeometry>
        </mxCell>
        <mxCell id="DIX37AAkpZwaq2ukfVkO-9" style="edgeStyle=orthogonalEdgeStyle;rounded=0;orthogonalLoop=1;jettySize=auto;html=1;exitX=0.5;exitY=1;exitDx=0;exitDy=0;entryX=0.5;entryY=0;entryDx=0;entryDy=0;fontFamily=STIX;" parent="WIyWlLk6GJQsqaUBKTNV-1" source="DIX37AAkpZwaq2ukfVkO-6" target="DIX37AAkpZwaq2ukfVkO-8" edge="1">
          <mxGeometry relative="1" as="geometry" />
        </mxCell>
        <mxCell id="DIX37AAkpZwaq2ukfVkO-6" value="Build pong response with specified ping ID" style="rounded=1;whiteSpace=wrap;html=1;absoluteArcSize=1;arcSize=14;strokeWidth=2;fontFamily=STIX;" parent="WIyWlLk6GJQsqaUBKTNV-1" vertex="1">
          <mxGeometry x="80" y="200" width="160" height="40" as="geometry" />
        </mxCell>
        <mxCell id="DIX37AAkpZwaq2ukfVkO-8" value="Send response" style="shape=parallelogram;html=1;strokeWidth=2;perimeter=parallelogramPerimeter;whiteSpace=wrap;rounded=1;arcSize=12;size=0.23;fontFamily=STIX;" parent="WIyWlLk6GJQsqaUBKTNV-1" vertex="1">
          <mxGeometry x="80" y="280" width="160" height="60" as="geometry" />
        </mxCell>
        <mxCell id="DIX37AAkpZwaq2ukfVkO-10" style="edgeStyle=orthogonalEdgeStyle;rounded=0;orthogonalLoop=1;jettySize=auto;html=1;exitX=0.5;exitY=1;exitDx=0;exitDy=0;entryX=0;entryY=0.5;entryDx=0;entryDy=0;entryPerimeter=0;fontFamily=STIX;" parent="WIyWlLk6GJQsqaUBKTNV-1" source="DIX37AAkpZwaq2ukfVkO-8" target="DIX37AAkpZwaq2ukfVkO-1" edge="1">
          <mxGeometry relative="1" as="geometry" />
        </mxCell>
        <mxCell id="DIX37AAkpZwaq2ukfVkO-20" style="edgeStyle=orthogonalEdgeStyle;rounded=0;orthogonalLoop=1;jettySize=auto;html=1;exitX=0;exitY=0.5;exitDx=0;exitDy=0;exitPerimeter=0;entryX=0;entryY=0.5;entryDx=0;entryDy=0;fontFamily=STIX;" parent="WIyWlLk6GJQsqaUBKTNV-1" source="DIX37AAkpZwaq2ukfVkO-14" target="DIX37AAkpZwaq2ukfVkO-15" edge="1">
          <mxGeometry relative="1" as="geometry" />
        </mxCell>
        <mxCell id="DIX37AAkpZwaq2ukfVkO-21" value="No" style="edgeLabel;html=1;align=center;verticalAlign=middle;resizable=0;points=[];fontFamily=STIX;" parent="DIX37AAkpZwaq2ukfVkO-20" vertex="1" connectable="0">
          <mxGeometry x="0.0154" y="-3" relative="1" as="geometry">
            <mxPoint y="46" as="offset" />
          </mxGeometry>
        </mxCell>
        <mxCell id="DIX37AAkpZwaq2ukfVkO-14" value="Is the&lt;div&gt;&lt;span style=&quot;background-color: transparent; color: light-dark(rgb(0, 0, 0), rgb(255, 255, 255));&quot;&gt;popped element&amp;nbsp;&lt;/span&gt;&lt;span style=&quot;background-color: transparent; color: light-dark(rgb(0, 0, 0), rgb(255, 255, 255));&quot;&gt;the&lt;/span&gt;&lt;/div&gt;&lt;div&gt;&lt;span style=&quot;background-color: transparent; color: light-dark(rgb(0, 0, 0), rgb(255, 255, 255));&quot;&gt;ping ID?&lt;/span&gt;&lt;/div&gt;" style="strokeWidth=2;html=1;shape=mxgraph.flowchart.decision;whiteSpace=wrap;fontFamily=STIX;" parent="WIyWlLk6GJQsqaUBKTNV-1" vertex="1">
          <mxGeometry x="280" y="380" width="160" height="60" as="geometry" />
        </mxCell>
        <mxCell id="DIX37AAkpZwaq2ukfVkO-15" value="Pop the front element of the queue" style="rounded=1;whiteSpace=wrap;html=1;absoluteArcSize=1;arcSize=14;strokeWidth=2;fontFamily=STIX;" parent="WIyWlLk6GJQsqaUBKTNV-1" vertex="1">
          <mxGeometry x="280" y="300" width="160" height="40" as="geometry" />
        </mxCell>
        <mxCell id="DIX37AAkpZwaq2ukfVkO-17" style="edgeStyle=orthogonalEdgeStyle;rounded=0;orthogonalLoop=1;jettySize=auto;html=1;exitX=0.5;exitY=1;exitDx=0;exitDy=0;exitPerimeter=0;entryX=0.5;entryY=0;entryDx=0;entryDy=0;fontFamily=STIX;" parent="WIyWlLk6GJQsqaUBKTNV-1" source="DIX37AAkpZwaq2ukfVkO-16" target="DIX37AAkpZwaq2ukfVkO-15" edge="1">
          <mxGeometry relative="1" as="geometry" />
        </mxCell>
        <mxCell id="DIX37AAkpZwaq2ukfVkO-18" value="Yes" style="edgeLabel;html=1;align=center;verticalAlign=middle;resizable=0;points=[];fontFamily=STIX;" parent="DIX37AAkpZwaq2ukfVkO-17" vertex="1" connectable="0">
          <mxGeometry x="-0.05" y="2" relative="1" as="geometry">
            <mxPoint x="-2" y="-9" as="offset" />
          </mxGeometry>
        </mxCell>
        <mxCell id="DIX37AAkpZwaq2ukfVkO-16" value="Is the&lt;div&gt;ping ID contained&amp;nbsp;&lt;span style=&quot;background-color: transparent; color: light-dark(rgb(0, 0, 0), rgb(255, 255, 255));&quot;&gt;in&lt;/span&gt;&lt;/div&gt;&lt;div&gt;&lt;span style=&quot;background-color: transparent; color: light-dark(rgb(0, 0, 0), rgb(255, 255, 255));&quot;&gt;the queue?&lt;/span&gt;&lt;/div&gt;" style="strokeWidth=2;html=1;shape=mxgraph.flowchart.decision;whiteSpace=wrap;fontFamily=STIX;" parent="WIyWlLk6GJQsqaUBKTNV-1" vertex="1">
          <mxGeometry x="280" y="200" width="160" height="60" as="geometry" />
        </mxCell>
        <mxCell id="DIX37AAkpZwaq2ukfVkO-19" style="edgeStyle=orthogonalEdgeStyle;rounded=0;orthogonalLoop=1;jettySize=auto;html=1;exitX=0.5;exitY=1;exitDx=0;exitDy=0;entryX=0.5;entryY=0;entryDx=0;entryDy=0;entryPerimeter=0;fontFamily=STIX;" parent="WIyWlLk6GJQsqaUBKTNV-1" source="DIX37AAkpZwaq2ukfVkO-15" target="DIX37AAkpZwaq2ukfVkO-14" edge="1">
          <mxGeometry relative="1" as="geometry" />
        </mxCell>
        <mxCell id="DIX37AAkpZwaq2ukfVkO-22" style="edgeStyle=orthogonalEdgeStyle;rounded=0;orthogonalLoop=1;jettySize=auto;html=1;exitX=0.5;exitY=1;exitDx=0;exitDy=0;exitPerimeter=0;entryX=0.5;entryY=0;entryDx=0;entryDy=0;entryPerimeter=0;fontFamily=STIX;" parent="WIyWlLk6GJQsqaUBKTNV-1" source="DIX37AAkpZwaq2ukfVkO-14" target="DIX37AAkpZwaq2ukfVkO-1" edge="1">
          <mxGeometry relative="1" as="geometry">
            <Array as="points">
              <mxPoint x="360" y="460" />
              <mxPoint x="400" y="460" />
            </Array>
          </mxGeometry>
        </mxCell>
        <mxCell id="DIX37AAkpZwaq2ukfVkO-23" value="Yes" style="edgeLabel;html=1;align=center;verticalAlign=middle;resizable=0;points=[];fontFamily=STIX;" parent="DIX37AAkpZwaq2ukfVkO-22" vertex="1" connectable="0">
          <mxGeometry x="-0.7467" y="3" relative="1" as="geometry">
            <mxPoint x="-17" as="offset" />
          </mxGeometry>
        </mxCell>
        <mxCell id="DIX37AAkpZwaq2ukfVkO-24" style="edgeStyle=orthogonalEdgeStyle;rounded=0;orthogonalLoop=1;jettySize=auto;html=1;exitX=1;exitY=0.5;exitDx=0;exitDy=0;exitPerimeter=0;entryX=0.5;entryY=0;entryDx=0;entryDy=0;entryPerimeter=0;fontFamily=STIX;" parent="WIyWlLk6GJQsqaUBKTNV-1" source="DIX37AAkpZwaq2ukfVkO-16" target="DIX37AAkpZwaq2ukfVkO-1" edge="1">
          <mxGeometry relative="1" as="geometry">
            <Array as="points">
              <mxPoint x="460" y="230" />
              <mxPoint x="460" y="460" />
              <mxPoint x="400" y="460" />
            </Array>
          </mxGeometry>
        </mxCell>
        <mxCell id="DIX37AAkpZwaq2ukfVkO-26" value="No" style="edgeLabel;html=1;align=center;verticalAlign=middle;resizable=0;points=[];fontFamily=STIX;" parent="DIX37AAkpZwaq2ukfVkO-24" vertex="1" connectable="0">
          <mxGeometry x="-0.9209" y="-4" relative="1" as="geometry">
            <mxPoint x="6" y="-4" as="offset" />
          </mxGeometry>
        </mxCell>
        <mxCell id="DIX37AAkpZwaq2ukfVkO-27" style="edgeStyle=orthogonalEdgeStyle;rounded=0;orthogonalLoop=1;jettySize=auto;html=1;exitX=0;exitY=0.5;exitDx=0;exitDy=0;exitPerimeter=0;entryX=0.5;entryY=0;entryDx=0;entryDy=0;entryPerimeter=0;fontFamily=STIX;" parent="WIyWlLk6GJQsqaUBKTNV-1" source="1lUNTdqZq1-scsrUU96o-1" target="DIX37AAkpZwaq2ukfVkO-16" edge="1">
          <mxGeometry relative="1" as="geometry">
            <Array as="points">
              <mxPoint x="300" y="140" />
              <mxPoint x="300" y="170" />
              <mxPoint x="360" y="170" />
            </Array>
          </mxGeometry>
        </mxCell>
        <mxCell id="DIX37AAkpZwaq2ukfVkO-28" value="Pong" style="edgeLabel;html=1;align=center;verticalAlign=middle;resizable=0;points=[];fontFamily=STIX;" parent="DIX37AAkpZwaq2ukfVkO-27" vertex="1" connectable="0">
          <mxGeometry x="0.7667" y="-1" relative="1" as="geometry">
            <mxPoint x="-59" y="-14" as="offset" />
          </mxGeometry>
        </mxCell>
        <mxCell id="DIX37AAkpZwaq2ukfVkO-31" style="edgeStyle=orthogonalEdgeStyle;rounded=0;orthogonalLoop=1;jettySize=auto;html=1;exitX=1;exitY=0.5;exitDx=0;exitDy=0;exitPerimeter=0;entryX=0.5;entryY=0;entryDx=0;entryDy=0;entryPerimeter=0;fontFamily=STIX;" parent="WIyWlLk6GJQsqaUBKTNV-1" source="1lUNTdqZq1-scsrUU96o-1" target="DIX37AAkpZwaq2ukfVkO-34" edge="1">
          <mxGeometry relative="1" as="geometry">
            <mxPoint x="580" y="150" as="sourcePoint" />
            <mxPoint x="560" y="260" as="targetPoint" />
            <Array as="points">
              <mxPoint x="560" y="140" />
            </Array>
          </mxGeometry>
        </mxCell>
        <mxCell id="DIX37AAkpZwaq2ukfVkO-32" value="Error" style="edgeLabel;html=1;align=center;verticalAlign=middle;resizable=0;points=[];fontFamily=STIX;" parent="DIX37AAkpZwaq2ukfVkO-31" vertex="1" connectable="0">
          <mxGeometry x="0.7667" y="-1" relative="1" as="geometry">
            <mxPoint x="1" y="-14" as="offset" />
          </mxGeometry>
        </mxCell>
        <mxCell id="DIX37AAkpZwaq2ukfVkO-37" value="Yes" style="edgeStyle=orthogonalEdgeStyle;rounded=0;orthogonalLoop=1;jettySize=auto;html=1;exitX=0.5;exitY=1;exitDx=0;exitDy=0;exitPerimeter=0;entryX=0.5;entryY=0;entryDx=0;entryDy=0;fontFamily=STIX;" parent="WIyWlLk6GJQsqaUBKTNV-1" source="DIX37AAkpZwaq2ukfVkO-34" target="DIX37AAkpZwaq2ukfVkO-36" edge="1">
          <mxGeometry x="-0.5" relative="1" as="geometry">
            <mxPoint as="offset" />
          </mxGeometry>
        </mxCell>
        <mxCell id="DIX37AAkpZwaq2ukfVkO-34" value="Is the&lt;div&gt;WebSocket supposed to close?&lt;/div&gt;" style="strokeWidth=2;html=1;shape=mxgraph.flowchart.decision;whiteSpace=wrap;fontFamily=STIX;" parent="WIyWlLk6GJQsqaUBKTNV-1" vertex="1">
          <mxGeometry x="480" y="200" width="160" height="60" as="geometry" />
        </mxCell>
        <mxCell id="DIX37AAkpZwaq2ukfVkO-35" value="" style="rounded=1;whiteSpace=wrap;html=1;absoluteArcSize=1;arcSize=14;strokeWidth=2;fontFamily=STIX;" parent="WIyWlLk6GJQsqaUBKTNV-1" vertex="1">
          <mxGeometry x="480" y="300" width="160" height="40" as="geometry" />
        </mxCell>
        <mxCell id="DIX37AAkpZwaq2ukfVkO-36" value="Disconnect" style="rounded=1;whiteSpace=wrap;html=1;absoluteArcSize=1;arcSize=14;strokeWidth=2;fontFamily=STIX;" parent="WIyWlLk6GJQsqaUBKTNV-1" vertex="1">
          <mxGeometry x="490" y="300" width="140" height="40" as="geometry" />
        </mxCell>
        <mxCell id="DIX37AAkpZwaq2ukfVkO-38" style="edgeStyle=orthogonalEdgeStyle;rounded=0;orthogonalLoop=1;jettySize=auto;html=1;exitX=1;exitY=0.5;exitDx=0;exitDy=0;exitPerimeter=0;entryX=1;entryY=0.5;entryDx=0;entryDy=0;entryPerimeter=0;fontFamily=STIX;" parent="WIyWlLk6GJQsqaUBKTNV-1" source="DIX37AAkpZwaq2ukfVkO-34" target="DIX37AAkpZwaq2ukfVkO-1" edge="1">
          <mxGeometry relative="1" as="geometry" />
        </mxCell>
        <mxCell id="DIX37AAkpZwaq2ukfVkO-39" style="edgeStyle=orthogonalEdgeStyle;rounded=0;orthogonalLoop=1;jettySize=auto;html=1;exitX=0.5;exitY=1;exitDx=0;exitDy=0;entryX=1;entryY=0.5;entryDx=0;entryDy=0;entryPerimeter=0;fontFamily=STIX;" parent="WIyWlLk6GJQsqaUBKTNV-1" source="DIX37AAkpZwaq2ukfVkO-36" target="DIX37AAkpZwaq2ukfVkO-1" edge="1">
          <mxGeometry relative="1" as="geometry" />
        </mxCell>
        <mxCell id="DIX37AAkpZwaq2ukfVkO-50" style="edgeStyle=orthogonalEdgeStyle;rounded=0;orthogonalLoop=1;jettySize=auto;html=1;exitX=0.5;exitY=1;exitDx=0;exitDy=0;exitPerimeter=0;entryX=0.5;entryY=0;entryDx=0;entryDy=0;fontFamily=STIX;" parent="WIyWlLk6GJQsqaUBKTNV-1" source="DIX37AAkpZwaq2ukfVkO-41" target="DIX37AAkpZwaq2ukfVkO-45" edge="1">
          <mxGeometry relative="1" as="geometry" />
        </mxCell>
        <mxCell id="DIX37AAkpZwaq2ukfVkO-51" value="Yes" style="edgeLabel;html=1;align=center;verticalAlign=middle;resizable=0;points=[];fontFamily=STIX;" parent="DIX37AAkpZwaq2ukfVkO-50" vertex="1" connectable="0">
          <mxGeometry x="-0.15" y="1" relative="1" as="geometry">
            <mxPoint x="-1" y="-7" as="offset" />
          </mxGeometry>
        </mxCell>
        <mxCell id="DIX37AAkpZwaq2ukfVkO-56" style="edgeStyle=orthogonalEdgeStyle;rounded=0;orthogonalLoop=1;jettySize=auto;html=1;exitX=1;exitY=0.5;exitDx=0;exitDy=0;exitPerimeter=0;entryX=0.5;entryY=0;entryDx=0;entryDy=0;entryPerimeter=0;fontFamily=STIX;" parent="WIyWlLk6GJQsqaUBKTNV-1" source="DIX37AAkpZwaq2ukfVkO-41" target="DIX37AAkpZwaq2ukfVkO-48" edge="1">
          <mxGeometry relative="1" as="geometry">
            <Array as="points">
              <mxPoint x="860" y="230" />
              <mxPoint x="860" y="360" />
              <mxPoint x="760" y="360" />
            </Array>
          </mxGeometry>
        </mxCell>
        <mxCell id="DIX37AAkpZwaq2ukfVkO-57" value="No" style="edgeLabel;html=1;align=center;verticalAlign=middle;resizable=0;points=[];fontFamily=STIX;" parent="DIX37AAkpZwaq2ukfVkO-56" vertex="1" connectable="0">
          <mxGeometry x="-0.8316" relative="1" as="geometry">
            <mxPoint x="-10" y="-3" as="offset" />
          </mxGeometry>
        </mxCell>
        <mxCell id="DIX37AAkpZwaq2ukfVkO-41" value="Is the&amp;nbsp;&lt;span style=&quot;background-color: transparent; color: light-dark(rgb(0, 0, 0), rgb(255, 255, 255));&quot;&gt;body&lt;/span&gt;&lt;div&gt;&lt;span style=&quot;background-color: transparent; color: light-dark(rgb(0, 0, 0), rgb(255, 255, 255));&quot;&gt;encoded?&lt;/span&gt;&lt;/div&gt;" style="strokeWidth=2;html=1;shape=mxgraph.flowchart.decision;whiteSpace=wrap;fontFamily=STIX;" parent="WIyWlLk6GJQsqaUBKTNV-1" vertex="1">
          <mxGeometry x="680" y="200" width="160" height="60" as="geometry" />
        </mxCell>
        <mxCell id="DIX37AAkpZwaq2ukfVkO-42" style="edgeStyle=orthogonalEdgeStyle;rounded=0;orthogonalLoop=1;jettySize=auto;html=1;exitX=1;exitY=0.5;exitDx=0;exitDy=0;exitPerimeter=0;entryX=0.5;entryY=0;entryDx=0;entryDy=0;entryPerimeter=0;fontFamily=STIX;" parent="WIyWlLk6GJQsqaUBKTNV-1" source="1lUNTdqZq1-scsrUU96o-1" target="DIX37AAkpZwaq2ukfVkO-41" edge="1">
          <mxGeometry relative="1" as="geometry" />
        </mxCell>
        <mxCell id="DIX37AAkpZwaq2ukfVkO-43" value="Data" style="edgeLabel;html=1;align=center;verticalAlign=middle;resizable=0;points=[];fontFamily=STIX;" parent="DIX37AAkpZwaq2ukfVkO-42" vertex="1" connectable="0">
          <mxGeometry x="0.8118" y="2" relative="1" as="geometry">
            <mxPoint as="offset" />
          </mxGeometry>
        </mxCell>
        <mxCell id="DIX37AAkpZwaq2ukfVkO-45" value="Decode data (UTF8/Base64)" style="rounded=1;whiteSpace=wrap;html=1;absoluteArcSize=1;arcSize=14;strokeWidth=2;fontFamily=STIX;" parent="WIyWlLk6GJQsqaUBKTNV-1" vertex="1">
          <mxGeometry x="680" y="300" width="160" height="40" as="geometry" />
        </mxCell>
        <mxCell id="DIX37AAkpZwaq2ukfVkO-54" value="Yes" style="edgeStyle=orthogonalEdgeStyle;rounded=0;orthogonalLoop=1;jettySize=auto;html=1;exitX=0.5;exitY=1;exitDx=0;exitDy=0;exitPerimeter=0;entryX=0.5;entryY=0;entryDx=0;entryDy=0;fontFamily=STIX;" parent="WIyWlLk6GJQsqaUBKTNV-1" source="DIX37AAkpZwaq2ukfVkO-48" target="DIX37AAkpZwaq2ukfVkO-49" edge="1">
          <mxGeometry x="-0.5" relative="1" as="geometry">
            <mxPoint as="offset" />
          </mxGeometry>
        </mxCell>
        <mxCell id="DIX37AAkpZwaq2ukfVkO-64" style="edgeStyle=orthogonalEdgeStyle;rounded=0;orthogonalLoop=1;jettySize=auto;html=1;exitX=1;exitY=0.5;exitDx=0;exitDy=0;exitPerimeter=0;entryX=0.5;entryY=0;entryDx=0;entryDy=0;fontFamily=STIX;" parent="WIyWlLk6GJQsqaUBKTNV-1" source="DIX37AAkpZwaq2ukfVkO-48" target="DIX37AAkpZwaq2ukfVkO-60" edge="1">
          <mxGeometry relative="1" as="geometry">
            <Array as="points">
              <mxPoint x="860" y="410" />
              <mxPoint x="860" y="540" />
              <mxPoint x="760" y="540" />
            </Array>
          </mxGeometry>
        </mxCell>
        <mxCell id="DIX37AAkpZwaq2ukfVkO-65" value="No" style="edgeLabel;html=1;align=center;verticalAlign=middle;resizable=0;points=[];fontFamily=STIX;" parent="DIX37AAkpZwaq2ukfVkO-64" vertex="1" connectable="0">
          <mxGeometry x="-0.9037" y="-2" relative="1" as="geometry">
            <mxPoint x="-3" y="-2" as="offset" />
          </mxGeometry>
        </mxCell>
        <mxCell id="DIX37AAkpZwaq2ukfVkO-48" value="Is the&amp;nbsp;&lt;span style=&quot;background-color: transparent; color: light-dark(rgb(0, 0, 0), rgb(255, 255, 255));&quot;&gt;body&lt;/span&gt;&lt;div&gt;&lt;span style=&quot;background-color: transparent; color: light-dark(rgb(0, 0, 0), rgb(255, 255, 255));&quot;&gt;compressed?&lt;/span&gt;&lt;/div&gt;" style="strokeWidth=2;html=1;shape=mxgraph.flowchart.decision;whiteSpace=wrap;fontFamily=STIX;" parent="WIyWlLk6GJQsqaUBKTNV-1" vertex="1">
          <mxGeometry x="680" y="380" width="160" height="60" as="geometry" />
        </mxCell>
        <mxCell id="DIX37AAkpZwaq2ukfVkO-63" style="edgeStyle=orthogonalEdgeStyle;rounded=0;orthogonalLoop=1;jettySize=auto;html=1;exitX=0.5;exitY=1;exitDx=0;exitDy=0;entryX=0.5;entryY=0;entryDx=0;entryDy=0;fontFamily=STIX;" parent="WIyWlLk6GJQsqaUBKTNV-1" source="DIX37AAkpZwaq2ukfVkO-49" target="DIX37AAkpZwaq2ukfVkO-60" edge="1">
          <mxGeometry relative="1" as="geometry" />
        </mxCell>
        <mxCell id="DIX37AAkpZwaq2ukfVkO-49" value="Decompress data (ZIP/GZIP)" style="rounded=1;whiteSpace=wrap;html=1;absoluteArcSize=1;arcSize=14;strokeWidth=2;fontFamily=STIX;" parent="WIyWlLk6GJQsqaUBKTNV-1" vertex="1">
          <mxGeometry x="680" y="480" width="160" height="40" as="geometry" />
        </mxCell>
        <mxCell id="DIX37AAkpZwaq2ukfVkO-52" style="edgeStyle=orthogonalEdgeStyle;rounded=0;orthogonalLoop=1;jettySize=auto;html=1;exitX=0.5;exitY=1;exitDx=0;exitDy=0;entryX=0.5;entryY=0;entryDx=0;entryDy=0;entryPerimeter=0;fontFamily=STIX;" parent="WIyWlLk6GJQsqaUBKTNV-1" source="DIX37AAkpZwaq2ukfVkO-45" target="DIX37AAkpZwaq2ukfVkO-48" edge="1">
          <mxGeometry relative="1" as="geometry" />
        </mxCell>
        <mxCell id="DIX37AAkpZwaq2ukfVkO-62" style="edgeStyle=orthogonalEdgeStyle;rounded=0;orthogonalLoop=1;jettySize=auto;html=1;exitX=0.5;exitY=1;exitDx=0;exitDy=0;entryX=0.5;entryY=0;entryDx=0;entryDy=0;fontFamily=STIX;" parent="WIyWlLk6GJQsqaUBKTNV-1" source="DIX37AAkpZwaq2ukfVkO-60" target="DIX37AAkpZwaq2ukfVkO-61" edge="1">
          <mxGeometry relative="1" as="geometry" />
        </mxCell>
        <mxCell id="DIX37AAkpZwaq2ukfVkO-60" value="Deserialise Data" style="rounded=1;whiteSpace=wrap;html=1;absoluteArcSize=1;arcSize=14;strokeWidth=2;fontFamily=STIX;" parent="WIyWlLk6GJQsqaUBKTNV-1" vertex="1">
          <mxGeometry x="680" y="560" width="160" height="40" as="geometry" />
        </mxCell>
        <mxCell id="DIX37AAkpZwaq2ukfVkO-61" value="Invoke&lt;div&gt;DataReceived&lt;div&gt;Event&lt;/div&gt;&lt;/div&gt;" style="shape=parallelogram;html=1;strokeWidth=2;perimeter=parallelogramPerimeter;whiteSpace=wrap;rounded=1;arcSize=12;size=0.23;fontFamily=STIX;" parent="WIyWlLk6GJQsqaUBKTNV-1" vertex="1">
          <mxGeometry x="680" y="640" width="160" height="60" as="geometry" />
        </mxCell>
        <mxCell id="DIX37AAkpZwaq2ukfVkO-66" style="edgeStyle=orthogonalEdgeStyle;rounded=0;orthogonalLoop=1;jettySize=auto;html=1;exitX=0.5;exitY=1;exitDx=0;exitDy=0;entryX=1;entryY=0.5;entryDx=0;entryDy=0;entryPerimeter=0;fontFamily=STIX;" parent="WIyWlLk6GJQsqaUBKTNV-1" source="DIX37AAkpZwaq2ukfVkO-61" target="DIX37AAkpZwaq2ukfVkO-1" edge="1">
          <mxGeometry relative="1" as="geometry" />
        </mxCell>
      </root>
    </mxGraphModel>
  </diagram>
</mxfile>
